<svg width="667" height="668" viewBox="0 0 667 668" fill="none" xmlns="http://www.w3.org/2000/svg">
<g clip-path="url(#clip0_1319_2)">
<rect x="60" y="125" width="555" height="409" fill="white"/>
<path d="M473.667 0.666687H194.333C72.9998 0.666687 0.666504 73 0.666504 194.333V473.333C0.666504 595 72.9998 667.333 194.333 667.333H473.333C594.666 667.333 667 595 667 473.667V194.333C667.333 73 595 0.666687 473.667 0.666687ZM398 471.667H234C220.333 471.667 209 460.333 209 446.667C209 433 220.333 421.667 234 421.667H398C440.666 421.667 475.666 387 475.666 344C475.666 301 441 266.333 398 266.333H229L237.666 275C247.333 285 247.333 300.667 237.333 310.667C232.333 315.667 226 318 219.666 318C213.333 318 207 315.667 202 310.667L149.666 258C140 248.333 140 232.333 149.666 222.667L202 170.333C211.666 160.667 227.667 160.667 237.333 170.333C247 180 247 196 237.333 205.667L226.333 216.667H398C468.333 216.667 525.666 274 525.666 344.333C525.666 414.667 468.333 471.667 398 471.667Z" fill="#FF0000"/>
</g>
<defs>
<clipPath id="clip0_1319_2">
<rect width="667.001" height="668" fill="white"/>
</clipPath>
</defs>
</svg>
